<?xml version="1.0" standalone="no"?>
<!DOCTYPE svg PUBLIC "-//W3C//DTD SVG 20010904//EN"
 "http://www.w3.org/TR/2001/REC-SVG-20010904/DTD/svg10.dtd">
<svg version="1.0" xmlns="http://www.w3.org/2000/svg"
 width="564.000000pt" height="423.000000pt" viewBox="0 0 564.000000 423.000000"
 preserveAspectRatio="xMidYMid meet">

<g transform="translate(0.000000,423.000000) scale(0.100000,-0.100000)"
fill="#000000" stroke="none">
<path d="M2751 3220 c-104 -22 -196 -93 -248 -192 -25 -48 -28 -63 -28 -153 0
-151 12 -171 321 -531 296 -346 327 -395 327 -514 0 -62 -5 -80 -37 -143 l-36
-72 0 -142 c0 -112 3 -143 13 -143 8 0 36 15 62 32 220 146 310 423 216 669
-38 101 -93 176 -341 465 -135 157 -253 300 -262 317 -21 40 -22 70 -3 107 18
35 43 50 85 50 17 0 40 -5 51 -10 26 -15 49 -62 49 -105 l0 -35 125 0 125 0 0
58 c0 73 -12 114 -52 182 -72 119 -230 188 -367 160z"/>
<path d="M1832 2901 c18 -21 166 -193 329 -382 163 -189 349 -405 413 -479
l116 -135 0 -172 c0 -99 -4 -173 -9 -173 -28 0 -99 71 -129 131 -29 56 -34 78
-39 162 l-6 97 -125 0 -124 0 5 -117 c5 -135 26 -208 86 -300 70 -108 192
-204 297 -233 l43 -12 3 -142 3 -141 125 0 125 0 3 494 2 493 -272 317 c-150
174 -333 387 -408 474 l-135 157 -168 0 -169 0 34 -39z"/>
<path d="M3325 2731 c-99 -115 -181 -215 -182 -223 -2 -7 33 -55 76 -106 l79
-92 272 315 271 315 -168 0 -168 0 -180 -209z"/>
</g>
</svg>
